<svg width="20" height="22" viewBox="0 0 20 22" fill="none" xmlns="http://www.w3.org/2000/svg">
<path d="M16.3822 1.19998H15.0734V0.899976C15.0734 0.499976 14.7713 0.0999756 14.2679 0.0999756C13.8652 0.0999756 13.4624 0.399976 13.4624 0.899976V1.19998H6.01193V0.899976C6.01193 0.499976 5.70989 0.0999756 5.20647 0.0999756C4.80374 0.0999756 4.40101 0.399976 4.40101 0.899976V1.19998H3.09214C1.68258 1.19998 0.575073 2.29998 0.575073 3.69998V16.8C0.575073 18.2 1.68258 19.3 3.09214 19.3H6.01193C6.41466 19.3 6.8174 19 6.8174 18.5C6.8174 18.1 6.51535 17.7 6.01193 17.7H3.09214C2.48804 17.7 2.08531 17.2 2.08531 16.7V6.89998C2.08531 6.59998 2.48804 6.19998 3.09214 6.19998H16.3822C16.9863 6.19998 17.3891 6.59998 17.3891 6.89998V8.69998C17.3891 9.09998 17.6911 9.49998 18.1945 9.49998C18.5973 9.49998 19 9.19998 19 8.69998V3.69998C18.8993 2.29998 17.7918 1.19998 16.3822 1.19998ZM17.3891 4.89998C17.087 4.79998 16.6843 4.69998 16.3822 4.69998H3.09214C2.68941 4.69998 2.38736 4.79998 2.08531 4.89998V3.69998C2.08531 3.09998 2.58872 2.69998 3.09214 2.69998H4.40101V3.19998C4.40101 3.59998 4.70306 3.99998 5.20647 3.99998C5.60921 3.99998 6.01193 3.69998 6.01193 3.19998V2.69998H13.5631V3.19998C13.5631 3.59998 13.8652 3.99998 14.3686 3.99998C14.7713 3.99998 15.1741 3.69998 15.1741 3.19998V2.69998H16.3822C16.9863 2.69998 17.3891 3.19998 17.3891 3.69998V4.89998Z" fill="#1DA1F2"/>
<path d="M13.2999 9.40002C10.0096 9.40002 7.29993 12.2 7.29993 15.6C7.29993 19 10.0096 21.8 13.2999 21.8C16.5902 21.8 19.2999 19 19.2999 15.6C19.2999 12.2 16.5902 9.40002 13.2999 9.40002V9.40002ZM13.2999 20.4C10.7838 20.4 8.75154 18.3 8.75154 15.7C8.75154 13.1 10.7838 11 13.2999 11C15.8161 11 17.8483 13.1 17.8483 15.7C17.8483 18.2 15.8161 20.4 13.2999 20.4Z" fill="#1DA1F2"/>
<path d="M16.6963 17.7C16.6013 17.9 16.3162 18.1 16.1261 18.1C16.0311 18.1 15.841 18.1 15.746 18L12.7999 16V13C12.7999 12.6 13.085 12.2 13.5602 12.2C13.9403 12.2 14.3205 12.5 14.3205 13V15.2L16.6013 16.7C16.7914 16.9 16.8864 17.3 16.6963 17.7V17.7Z" fill="#1DA1F2"/>
</svg>
