<svg width="32" height="32" viewBox="0 0 32 32" fill="none" xmlns="http://www.w3.org/2000/svg">
<path d="M14.2981 4.67009L15.5 4.42641V3.2V2C15.5 1.72218 15.7222 1.5 16 1.5C16.2778 1.5 16.5 1.72218 16.5 2V3.2V4.42641L17.702 4.67009C21.5787 5.45607 24.5 8.88979 24.5 13V14.175C24.5 17.4876 25.717 20.6722 27.9088 23.145L27.9116 23.1482L28.3741 23.667L28.3753 23.6682C28.5063 23.8149 28.5378 24.0249 28.4583 24.2007C28.3743 24.3863 28.1941 24.5 28 24.5H4.00002C3.79858 24.5 3.6216 24.3806 3.54623 24.2106C3.46196 24.0206 3.50004 23.8078 3.62476 23.6682L3.6259 23.667L4.0884 23.1482L4.09129 23.145C6.2833 20.6719 7.50002 17.4809 7.50002 14.175V13C7.50002 8.88979 10.4213 5.45606 14.2981 4.67009ZM18.0046 29.5C17.9336 29.5953 17.8555 29.6857 17.7706 29.7706C17.3044 30.2368 16.6682 30.5 16 30.5C15.3319 30.5 14.6957 30.2368 14.2294 29.7706C14.1446 29.6857 14.0665 29.5953 13.9954 29.5H16H18.0046Z" stroke="white" stroke-width="3"/>
</svg>
