<svg width="32" height="32" viewBox="0 0 32 32" fill="none" xmlns="http://www.w3.org/2000/svg">
    <path
        d="M5.5335 30.4962L5.53349 30.4962L5.5298 30.4988C5.52816 30.4993 5.5246 30.5 5.51875 30.5C5.51776 30.5 5.51696 30.5 5.51634 30.4999C5.51522 30.4998 5.51464 30.4997 5.51447 30.4997L5.51326 30.4993C5.512 30.4988 5.50917 30.4972 5.50597 30.494C5.50278 30.4908 5.50123 30.488 5.50069 30.4867L5.50031 30.4855C5.50026 30.4853 5.5 30.484 5.5 30.4813V3C5.5 2.17218 6.17218 1.5 7 1.5H25C25.8278 1.5 26.5 2.17218 26.5 3V30.4813C26.5 30.484 26.4997 30.4853 26.4997 30.4855L26.4993 30.4867C26.4988 30.488 26.4972 30.4908 26.494 30.494C26.4908 30.4972 26.488 30.4988 26.4867 30.4993L26.4855 30.4997C26.4853 30.4997 26.484 30.5 26.4813 30.5C26.4754 30.5 26.4719 30.4993 26.4702 30.4988L26.4665 30.4962L16.8602 23.7712L16 23.169L15.1398 23.7712L5.5335 30.4962Z"
        stroke="white" stroke-width="3" />
</svg>