<svg width="32" height="32" viewBox="0 0 32 32" fill="none" xmlns="http://www.w3.org/2000/svg">
<g clip-path="url(#clip0_58_1009)">
<path d="M26.3619 12.7407L14.3506 30.3014C14.3505 30.3016 14.3503 30.3019 14.3502 30.3021C14.2597 30.4335 14.1153 30.5062 13.9688 30.5062H13.7875C13.6347 30.5062 13.5063 30.3778 13.5063 30.225C13.5063 30.2132 13.5076 30.1967 13.5139 30.1724L13.516 30.1643L13.518 30.1563L16.4555 18.3625L16.9194 16.5H15H6C5.74344 16.5 5.53434 16.3105 5.50383 16.0627L7.26967 1.93605C7.30052 1.68926 7.51014 1.5 7.76875 1.5H18.3062C18.4153 1.5 18.5 1.58468 18.5 1.69375C18.5 1.71274 18.4953 1.74295 18.4864 1.76848L15.5956 9.47307L14.8351 11.5H17H25.7062C26.143 11.5 26.5 11.8561 26.5 12.2937C26.5 12.4577 26.4518 12.6101 26.3645 12.7368L26.3619 12.7407Z" stroke="white" stroke-width="3"/>
</g>
<defs>
<clipPath id="clip0_58_1009">
<rect width="32" height="32" fill="white"/>
</clipPath>
</defs>
</svg>
