<svg width="32" height="32" viewBox="0 0 32 32" fill="none" xmlns="http://www.w3.org/2000/svg">
    <path
        d="M11.5 4V4.5H12H20H20.5V4V2C20.5 1.16989 21.1699 0.5 22 0.5C22.8301 0.5 23.5 1.16989 23.5 2V4V4.5H24H27C28.3801 4.5 29.5 5.61989 29.5 7V9.5H2.5V7C2.5 5.61989 3.61989 4.5 5 4.5H8H8.5V4V2C8.5 1.16989 9.16989 0.5 10 0.5C10.8301 0.5 11.5 1.16989 11.5 2V4ZM2.5 12.5H29.5V29C29.5 30.3801 28.3801 31.5 27 31.5H5C3.61989 31.5 2.5 30.3801 2.5 29V12.5ZM5.5 17V19C5.5 19.8261 6.17386 20.5 7 20.5H9C9.82614 20.5 10.5 19.8261 10.5 19V17C10.5 16.1739 9.82614 15.5 9 15.5H7C6.17386 15.5 5.5 16.1739 5.5 17ZM13.5 17V19C13.5 19.8261 14.1739 20.5 15 20.5H17C17.8261 20.5 18.5 19.8261 18.5 19V17C18.5 16.1739 17.8261 15.5 17 15.5H15C14.1739 15.5 13.5 16.1739 13.5 17ZM23 15.5C22.1739 15.5 21.5 16.1739 21.5 17V19C21.5 19.8261 22.1739 20.5 23 20.5H25C25.8261 20.5 26.5 19.8261 26.5 19V17C26.5 16.1739 25.8261 15.5 25 15.5H23ZM5.5 25V27C5.5 27.8261 6.17386 28.5 7 28.5H9C9.82614 28.5 10.5 27.8261 10.5 27V25C10.5 24.1739 9.82614 23.5 9 23.5H7C6.17386 23.5 5.5 24.1739 5.5 25ZM15 23.5C14.1739 23.5 13.5 24.1739 13.5 25V27C13.5 27.8261 14.1739 28.5 15 28.5H17C17.8261 28.5 18.5 27.8261 18.5 27V25C18.5 24.1739 17.8261 23.5 17 23.5H15ZM21.5 25V27C21.5 27.8261 22.1739 28.5 23 28.5H25C25.8261 28.5 26.5 27.8261 26.5 27V25C26.5 24.1739 25.8261 23.5 25 23.5H23C22.1739 23.5 21.5 24.1739 21.5 25Z"
        stroke="#1DA1F2" />
</svg>