<svg width="32" height="32" viewBox="0 0 32 32" fill="none" xmlns="http://www.w3.org/2000/svg">
<rect x="1" y="1" width="30" height="30" rx="15" stroke="white" stroke-width="2"/>
<path d="M5.19995 16C5.19995 15.2573 5.49495 14.5452 6.02005 14.0201C6.54515 13.495 7.25735 13.2 7.99995 13.2C8.74256 13.2 9.45475 13.495 9.97985 14.0201C10.505 14.5452 10.8 15.2573 10.8 16C10.8 16.7426 10.505 17.4547 9.97985 17.9799C9.45475 18.505 8.74256 18.8 7.99995 18.8C7.25735 18.8 6.54515 18.505 6.02005 17.9799C5.49495 17.4547 5.19995 16.7426 5.19995 16ZM13.2 16C13.2 15.2573 13.495 14.5452 14.0201 14.0201C14.5452 13.495 15.2573 13.2 16 13.2C16.7426 13.2 17.4547 13.495 17.9799 14.0201C18.505 14.5452 18.8 15.2573 18.8 16C18.8 16.7426 18.505 17.4547 17.9799 17.9799C17.4547 18.505 16.7426 18.8 16 18.8C15.2573 18.8 14.5452 18.505 14.0201 17.9799C13.495 17.4547 13.2 16.7426 13.2 16ZM24 13.2C24.7426 13.2 25.4547 13.495 25.9799 14.0201C26.505 14.5452 26.8 15.2573 26.8 16C26.8 16.7426 26.505 17.4547 25.9799 17.9799C25.4547 18.505 24.7426 18.8 24 18.8C23.2573 18.8 22.5452 18.505 22.0201 17.9799C21.4949 17.4547 21.2 16.7426 21.2 16C21.2 15.2573 21.4949 14.5452 22.0201 14.0201C22.5452 13.495 23.2573 13.2 24 13.2Z" fill="white"/>
</svg>
