<svg width="32" height="32" viewBox="0 0 32 32" fill="none" xmlns="http://www.w3.org/2000/svg">
<path d="M3.99706 17.6771L3.99863 17.6785L15.2922 28.2221C15.2923 28.2222 15.2923 28.2222 15.2924 28.2223C15.4826 28.3998 15.7352 28.5 16 28.5C16.2648 28.5 16.5175 28.3997 16.7078 28.2221L28.0014 17.6785L28.0029 17.6771C29.5968 16.1933 30.5 14.1104 30.5 11.9312V11.5687C30.5 7.93326 27.8739 4.83401 24.2909 4.23581L3.99706 17.6771ZM3.99706 17.6771C2.40322 16.1933 1.5 14.1104 1.5 11.9312V11.5687C1.5 7.93326 4.1261 4.83402 7.7091 4.23581L3.99706 17.6771ZM16 8.12129L14.9393 7.06063L14.1893 6.31063C12.4945 4.61575 10.0815 3.84053 7.70945 4.23575L16 8.12129ZM16 8.12129L17.0607 7.06063M16 8.12129L17.0607 7.06063M17.0607 7.06063L17.8107 6.31063C19.5055 4.61575 21.9185 3.84053 24.2906 4.23575L17.0607 7.06063Z" stroke="black" stroke-width="3"/>
</svg>
