<svg width="32" height="32" viewBox="0 0 32 32" fill="none" xmlns="http://www.w3.org/2000/svg">
<g clip-path="url(#clip0_58_985)">
<path d="M30.39 15.7678C30.4415 15.8129 30.4728 15.8475 30.491 15.8702L30.4889 15.8892V15.9723C30.4889 16.0435 30.4616 16.1113 30.4026 16.1692C30.3394 16.2314 30.2663 16.2556 30.2111 16.2556H28.4333H26.9268L26.9333 17.7622L26.9722 26.6556C26.9722 26.6566 26.9722 26.6575 26.9722 26.6585C26.9721 26.7353 26.9663 26.8261 26.9536 26.94L26.9444 27.0225V27.1056V28.0001C26.9444 28.3994 26.6216 28.7223 26.2222 28.7223H25.3333L25.296 28.7222L25.2758 28.722H25.2758L25.1646 28.7119L25.0431 28.7205C25.0276 28.7216 25.0033 28.7223 24.9167 28.7223H23.1111H21.7778C21.3784 28.7223 21.0556 28.3994 21.0556 28.0001V26.6667V23.1112C21.0556 21.2994 19.5895 19.8334 17.7778 19.8334H14.2222C12.4105 19.8334 10.9444 21.2994 10.9444 23.1112V26.6667V28.0001C10.9444 28.3994 10.6216 28.7223 10.2222 28.7223H8.88889H7.11667C7.09164 28.7223 7.0582 28.7206 6.96644 28.7145L6.8542 28.707L6.7421 28.7163C6.70616 28.7193 6.68832 28.7208 6.67309 28.7217C6.66788 28.7221 6.66462 28.7222 6.66301 28.7223H5.77778C5.37843 28.7223 5.05556 28.3994 5.05556 28.0001V21.7778L5.0556 21.755L5.06111 21.7054V21.6223V17.7556V16.2556H3.56111H1.77778C1.67652 16.2556 1.614 16.2199 1.5757 16.1815C1.53745 16.1432 1.5 16.0786 1.5 15.9723C1.5 15.8925 1.51252 15.851 1.52164 15.8285C1.52909 15.8102 1.54555 15.7765 1.59022 15.7269L15.7856 3.353L15.8243 3.31925L15.8557 3.28785C15.8773 3.28385 15.9256 3.27783 16.0222 3.27783C16.0787 3.27783 16.1361 3.28651 16.1818 3.30071C16.2077 3.30875 16.2223 3.31612 16.2283 3.31949L30.3875 15.7656L30.39 15.7678Z" stroke="white" stroke-width="3"/>
</g>
<defs>
<clipPath id="clip0_58_985">
<rect width="32" height="32" fill="white"/>
</clipPath>
</defs>
</svg>
