<svg width="32" height="32" viewBox="0 0 32 32" fill="none" xmlns="http://www.w3.org/2000/svg">
<path d="M4 9C4.79565 9 5.55871 8.68393 6.12132 8.12132C6.68393 7.55871 7 6.79565 7 6C7 5.20435 6.68393 4.44129 6.12132 3.87868C5.55871 3.31607 4.79565 3 4 3C3.20435 3 2.44129 3.31607 1.87868 3.87868C1.31607 4.44129 1 5.20435 1 6C1 6.79565 1.31607 7.55871 1.87868 8.12132C2.44129 8.68393 3.20435 9 4 9ZM12 4C10.8937 4 10 4.89375 10 6C10 7.10625 10.8937 8 12 8H30C31.1063 8 32 7.10625 32 6C32 4.89375 31.1063 4 30 4H12ZM12 14C10.8937 14 10 14.8937 10 16C10 17.1063 10.8937 18 12 18H30C31.1063 18 32 17.1063 32 16C32 14.8937 31.1063 14 30 14H12ZM12 24C10.8937 24 10 24.8937 10 26C10 27.1063 10.8937 28 12 28H30C31.1063 28 32 27.1063 32 26C32 24.8937 31.1063 24 30 24H12ZM4 29C4.79565 29 5.55871 28.6839 6.12132 28.1213C6.68393 27.5587 7 26.7956 7 26C7 25.2044 6.68393 24.4413 6.12132 23.8787C5.55871 23.3161 4.79565 23 4 23C3.20435 23 2.44129 23.3161 1.87868 23.8787C1.31607 24.4413 1 25.2044 1 26C1 26.7956 1.31607 27.5587 1.87868 28.1213C2.44129 28.6839 3.20435 29 4 29ZM7 16C7 15.606 6.9224 15.2159 6.77164 14.8519C6.62087 14.488 6.3999 14.1573 6.12132 13.8787C5.84274 13.6001 5.51203 13.3791 5.14805 13.2284C4.78407 13.0776 4.39397 13 4 13C3.60603 13 3.21593 13.0776 2.85195 13.2284C2.48797 13.3791 2.15726 13.6001 1.87868 13.8787C1.6001 14.1573 1.37913 14.488 1.22836 14.8519C1.0776 15.2159 1 15.606 1 16C1 16.394 1.0776 16.7841 1.22836 17.1481C1.37913 17.512 1.6001 17.8427 1.87868 18.1213C2.15726 18.3999 2.48797 18.6209 2.85195 18.7716C3.21593 18.9224 3.60603 19 4 19C4.39397 19 4.78407 18.9224 5.14805 18.7716C5.51203 18.6209 5.84274 18.3999 6.12132 18.1213C6.3999 17.8427 6.62087 17.512 6.77164 17.1481C6.9224 16.7841 7 16.394 7 16Z" fill="white"/>
</svg>
