<svg width="32" height="32" viewBox="0 0 32 32" fill="none" xmlns="http://www.w3.org/2000/svg">
    <g clip-path="url(#clip0_49_778)">
        <path
            d="M29.475 1.35625C28.1063 -0.0124985 25.8937 -0.0124985 24.525 1.35625L22.6437 3.23125L28.7625 9.35L30.6437 7.46875C32.0125 6.1 32.0125 3.8875 30.6437 2.51875L29.475 1.35625ZM10.775 15.1063C10.3937 15.4875 10.1 15.9563 9.93125 16.475L8.08125 22.025C7.9 22.5625 8.04375 23.1563 8.44375 23.5625C8.84375 23.9688 9.4375 24.1063 9.98125 23.925L15.5312 22.075C16.0437 21.9063 16.5125 21.6125 16.9 21.2313L27.3563 10.7688L21.2313 4.64375L10.775 15.1063ZM6 4C2.6875 4 0 6.6875 0 10V26C0 29.3125 2.6875 32 6 32H22C25.3125 32 28 29.3125 28 26V20C28 18.8938 27.1063 18 26 18C24.8937 18 24 18.8938 24 20V26C24 27.1063 23.1063 28 22 28H6C4.89375 28 4 27.1063 4 26V10C4 8.89375 4.89375 8 6 8H12C13.1063 8 14 7.10625 14 6C14 4.89375 13.1063 4 12 4H6Z"
            fill="white" />
    </g>
    <defs>
        <clipPath id="clip0_49_778">
            <rect width="32" height="32" fill="white" />
        </clipPath>
    </defs>
</svg>