<svg width="32" height="32" viewBox="0 0 32 32" fill="none" xmlns="http://www.w3.org/2000/svg">
    <path
        d="M16.7556 29.4387C17.739 29.4387 18.5335 28.5825 18.5335 27.5228C18.5335 26.463 17.739 25.6069 16.7556 25.6069H10.5329C7.11043 25.6069 7.11043 25.6069 7.11043 17.3318V9.66817H8.88834C9.60506 9.66817 10.2551 9.20116 10.5329 8.48269C10.8107 7.76422 10.6551 6.94397 10.1495 6.39314L6.59372 2.5613C5.89922 1.8129 4.77136 1.8129 4.07686 2.5613L0.521028 6.39314C0.00987726 6.94397 -0.140134 7.76422 0.137665 8.48269C0.415464 9.20116 1.05996 9.66817 1.78224 9.66817H3.56015V17.3318C3.56015 29.4387 3.56015 29.4387 10.5385 29.4387H16.7556ZM15.6333 2.5613C14.6499 2.5613 13.8554 3.41748 13.8554 4.47722C13.8554 5.53697 14.6499 6.39314 15.6333 6.39314H21.856C24.8896 6.39314 24.8896 6.39314 24.8896 9.66817V21.3318H23.1117C22.3949 21.3318 21.7449 21.7988 21.4671 22.5173C21.1893 23.2358 21.3449 24.056 21.8505 24.6069L25.4063 28.4387C26.1008 29.1871 27.2286 29.1871 27.9231 28.4387L31.479 24.6069C31.9901 24.056 32.1401 23.2358 31.8623 22.5173C31.5845 21.7988 30.94 21.3318 30.2178 21.3318H28.4399V9.66817C28.4399 2.5613 28.4399 2.5613 21.8505 2.5613H15.6333Z"
        fill="white" />
</svg>