<svg width="32" height="32" viewBox="0 0 32 32" fill="none" xmlns="http://www.w3.org/2000/svg">
<path d="M16.7556 27.4387C17.739 27.4387 18.5335 26.5825 18.5335 25.5228C18.5335 24.463 17.739 23.6069 16.7556 23.6069H10.5329C7.11043 23.6069 7.11043 23.6069 7.11043 20.3318V12.6682H8.88834C9.60506 12.6682 10.2551 12.2012 10.5329 11.4827C10.8107 10.7642 10.6551 9.94397 10.1495 9.39314L6.59372 5.5613C5.89922 4.8129 4.77136 4.8129 4.07686 5.5613L0.521028 9.39314C0.00987726 9.94397 -0.140134 10.7642 0.137665 11.4827C0.415464 12.2012 1.05996 12.6682 1.78224 12.6682H3.56015V20.3318C3.56015 27.4387 3.56015 27.4387 10.5385 27.4387H16.7556ZM15.6333 5.5613C14.6499 5.5613 13.8554 6.41748 13.8554 7.47722C13.8554 8.53697 14.6499 9.39314 15.6333 9.39314H21.856C24.8896 9.39314 24.8896 9.39314 24.8896 12.6682V20.3318H23.1117C22.3949 20.3318 21.7449 20.7988 21.4671 21.5173C21.1893 22.2358 21.3449 23.056 21.8505 23.6069L25.4063 27.4387C26.1008 28.1871 27.2286 28.1871 27.9231 27.4387L31.479 23.6069C31.9901 23.056 32.1401 22.2358 31.8623 21.5173C31.5845 20.7988 30.94 20.3318 30.2178 20.3318H28.4399V12.6682C28.4399 5.5613 28.4399 5.5613 21.8505 5.5613H15.6333Z" fill="black"/>
</svg>
