<svg width="32" height="32" viewBox="0 0 32 32" fill="none" xmlns="http://www.w3.org/2000/svg">
<path d="M17.4125 0.5875C16.6313 -0.193748 15.3625 -0.193748 14.5813 0.5875L6.58125 8.5875C5.8 9.36875 5.8 10.6375 6.58125 11.4188C7.3625 12.2 8.63125 12.2 9.4125 11.4188L14 6.83125L14 20C14 21.1062 14.8938 22 16 22C17.1062 22 18 21.1062 18 20V6.83125L22.5875 11.4188C23.3687 12.2 24.6375 12.2 25.4188 11.4188C26.2 10.6375 26.2 9.36875 25.4188 8.5875L17.4188 0.5875H17.4125ZM6 22C6 20.8938 5.10625 20 4 20C2.89375 20 2 20.8938 2 22V26C2 29.3125 4.6875 32 8 32H24C27.3125 32 30 29.3125 30 26V22C30 20.8938 29.1063 20 28 20C26.8937 20 26 20.8938 26 22V26C26 27.1062 25.1063 28 24 28H8C6.89375 28 6 27.1062 6 26L6 22Z" fill="black"/>
</svg>
