<svg width="32" height="32" viewBox="0 0 32 32" fill="none" xmlns="http://www.w3.org/2000/svg">
    <path
        d="M4 12C5.10625 12 6 12.8937 6 14L6 28C6 29.1063 5.10625 30 4 30C2.89375 30 2 29.1063 2 28L2 14C2 12.8937 2.89375 12 4 12ZM20 18C21.1063 18 22 18.8937 22 20V28C22 29.1063 21.1063 30 20 30C18.8937 30 18 29.1063 18 28V20C18 18.8937 18.8937 18 20 18ZM12 30C10.8937 30 10 29.1063 10 28L10 4C10 2.89375 10.8937 2 12 2C13.1063 2 14 2.89375 14 4L14 28C14 29.1063 13.1063 30 12 30ZM28 7.5C29.1063 7.5 30 8.39375 30 9.5V28C30 29.1063 29.1063 30 28 30C26.8937 30 26 29.1063 26 28V9.5C26 8.39375 26.8937 7.5 28 7.5Z"
        fill="white" />
</svg>