<svg width="32" height="32" viewBox="0 0 32 32" fill="none" xmlns="http://www.w3.org/2000/svg">
<path d="M20.5962 12.5962C19.3772 13.8152 17.7239 14.5 16 14.5C14.2761 14.5 12.6228 13.8152 11.4038 12.5962C10.1848 11.3772 9.5 9.72391 9.5 8C9.5 6.27609 10.1848 4.62279 11.4038 3.40381C12.6228 2.18482 14.2761 1.5 16 1.5C17.7239 1.5 19.3772 2.18482 20.5962 3.40381C21.8152 4.62279 22.5 6.27609 22.5 8C22.5 9.72391 21.8152 11.3772 20.5962 12.5962ZM3.5 30.1437C3.5 24.8159 7.81593 20.5 13.1438 20.5H18.8563C24.1841 20.5 28.5 24.8159 28.5 30.1437C28.5 30.3403 28.3403 30.5 28.1437 30.5H3.85625C3.65968 30.5 3.5 30.3403 3.5 30.1437Z" stroke="white" stroke-width="3"/>
</svg>
