<svg width="32" height="32" viewBox="0 0 32 32" fill="none" xmlns="http://www.w3.org/2000/svg">
<g clip-path="url(#clip0_58_999)">
<path d="M25.4989 27.3C25.4996 27.2667 25.5 27.2334 25.5 27.2V26.8C25.5 24.5609 24.8581 22.468 23.75 20.7H23.935C27.5616 20.7 30.5 23.6384 30.5 27.265C30.5 27.2728 30.4987 27.2761 30.4979 27.278C30.4967 27.2809 30.4942 27.285 30.4899 27.2893C30.4856 27.2937 30.4811 27.2964 30.4778 27.2978C30.4754 27.2988 30.472 27.3 30.465 27.3H25.4989ZM6.3 9.59995C6.3 8.30039 6.81625 7.05406 7.73518 6.13513C8.65411 5.2162 9.90044 4.69995 11.2 4.69995C12.4996 4.69995 13.7459 5.2162 14.6648 6.13513C15.5838 7.05406 16.1 8.30039 16.1 9.59995C16.1 10.8995 15.5838 12.1458 14.6648 13.0648C13.7459 13.9837 12.4996 14.5 11.2 14.5C9.90044 14.5 8.6541 13.9837 7.73518 13.0648C6.81625 12.1458 6.3 10.8995 6.3 9.59995ZM20.9 27.3H1.50001C1.5081 23.2103 4.82343 19.9 8.915 19.9H13.485C17.5766 19.9 20.8919 23.2103 20.9 27.3ZM21.6 14.5C20.8837 14.5 20.2116 14.3169 19.6255 13.9939C20.3126 12.6784 20.7 11.1828 20.7 9.59995C20.7 8.53424 20.5237 7.50643 20.1975 6.54647C20.6355 6.38692 21.1074 6.29995 21.6 6.29995C23.8666 6.29995 25.7 8.13338 25.7 10.4C25.7 12.6665 23.8666 14.5 21.6 14.5Z" stroke="white" stroke-width="3"/>
</g>
<defs>
<clipPath id="clip0_58_999">
<rect width="32" height="32" fill="white"/>
</clipPath>
</defs>
</svg>
