<svg width="21" height="20" viewBox="0 0 21 20" fill="none" xmlns="http://www.w3.org/2000/svg">
    <path
        d="M18.25 0H2.75C1.51 0 0.5 1.01 0.5 2.25V17.75C0.5 18.99 1.51 20 2.75 20H18.25C19.49 20 20.5 18.99 20.5 17.75V2.25C20.5 1.01 19.49 0 18.25 0ZM2.75 1.5H18.25C18.663 1.5 19 1.837 19 2.25V11.926L15.142 8.068C15.002 7.928 14.812 7.848 14.612 7.848H14.609C14.409 7.848 14.216 7.928 14.077 8.072L9.76 12.456L7.947 10.65C7.807 10.51 7.617 10.43 7.417 10.43C7.224 10.4 7.022 10.51 6.882 10.657L2 15.642V2.25C2 1.837 2.337 1.5 2.75 1.5ZM2.006 17.78L7.424 12.246L13.706 18.5H2.75C2.348 18.5 2.023 18.178 2.006 17.78ZM18.25 18.5H15.83L10.823 13.513L14.615 9.663L19 14.047V17.75C19 18.163 18.663 18.5 18.25 18.5Z"
        fill="#1DA1F2" />
    <path
        d="M7.36805 7.85103C8.21967 7.85103 8.91005 7.16065 8.91005 6.30903C8.91005 5.45741 8.21967 4.76703 7.36805 4.76703C6.51643 4.76703 5.82605 5.45741 5.82605 6.30903C5.82605 7.16065 6.51643 7.85103 7.36805 7.85103Z"
        fill="#1DA1F2" />
</svg>